<svg width="903" height="354" viewBox="0 0 903 354" fill="none" xmlns="http://www.w3.org/2000/svg">
<rect y="56" width="70" height="242" fill="#FFBB27"/>
<path d="M141.66 189.96C141.66 180 143.7 171.18 147.78 163.5C151.98 155.82 157.62 149.88 164.7 145.68C171.9 141.36 179.88 139.2 188.64 139.2C195.12 139.2 201.48 140.64 207.72 143.52C214.08 146.28 219.12 150 222.84 154.68V106.8H243.54V240H222.84V225.06C219.48 229.86 214.8 233.82 208.8 236.94C202.92 240.06 196.14 241.62 188.46 241.62C179.82 241.62 171.9 239.46 164.7 235.14C157.62 230.7 151.98 224.58 147.78 216.78C143.7 208.86 141.66 199.92 141.66 189.96ZM222.84 190.32C222.84 183.48 221.4 177.54 218.52 172.5C215.76 167.46 212.1 163.62 207.54 160.98C202.98 158.34 198.06 157.02 192.78 157.02C187.5 157.02 182.58 158.34 178.02 160.98C173.46 163.5 169.74 167.28 166.86 172.32C164.1 177.24 162.72 183.12 162.72 189.96C162.72 196.8 164.1 202.8 166.86 207.96C169.74 213.12 173.46 217.08 178.02 219.84C182.7 222.48 187.62 223.8 192.78 223.8C198.06 223.8 202.98 222.48 207.54 219.84C212.1 217.2 215.76 213.36 218.52 208.32C221.4 203.16 222.84 197.16 222.84 190.32ZM280.932 127.68C277.212 127.68 274.092 126.42 271.572 123.9C269.052 121.38 267.792 118.26 267.792 114.54C267.792 110.82 269.052 107.7 271.572 105.18C274.092 102.66 277.212 101.4 280.932 101.4C284.532 101.4 287.592 102.66 290.112 105.18C292.632 107.7 293.892 110.82 293.892 114.54C293.892 118.26 292.632 121.38 290.112 123.9C287.592 126.42 284.532 127.68 280.932 127.68ZM291.012 259.44C291.012 269.16 288.552 276.18 283.632 280.5C278.832 284.94 271.812 287.16 262.572 287.16H251.952V269.88H258.972C263.172 269.88 266.112 269.04 267.792 267.36C269.592 265.8 270.492 263.16 270.492 259.44V140.82H291.012V259.44ZM311.113 189.96C311.113 180 313.153 171.18 317.233 163.5C321.433 155.82 327.073 149.88 334.153 145.68C341.353 141.36 349.273 139.2 357.913 139.2C365.713 139.2 372.493 140.76 378.253 143.88C384.133 146.88 388.813 150.66 392.293 155.22V140.82H412.993V240H392.293V225.24C388.813 229.92 384.073 233.82 378.073 236.94C372.073 240.06 365.233 241.62 357.553 241.62C349.033 241.62 341.233 239.46 334.153 235.14C327.073 230.7 321.433 224.58 317.233 216.78C313.153 208.86 311.113 199.92 311.113 189.96ZM392.293 190.32C392.293 183.48 390.853 177.54 387.973 172.5C385.213 167.46 381.553 163.62 376.993 160.98C372.433 158.34 367.513 157.02 362.233 157.02C356.953 157.02 352.033 158.34 347.473 160.98C342.913 163.5 339.193 167.28 336.313 172.32C333.553 177.24 332.173 183.12 332.173 189.96C332.173 196.8 333.553 202.8 336.313 207.96C339.193 213.12 342.913 217.08 347.473 219.84C352.153 222.48 357.073 223.8 362.233 223.8C367.513 223.8 372.433 222.48 376.993 219.84C381.553 217.2 385.213 213.36 387.973 208.32C390.853 203.16 392.293 197.16 392.293 190.32ZM489.985 139.2C497.785 139.2 504.745 140.82 510.865 144.06C517.105 147.3 521.965 152.1 525.445 158.46C528.925 164.82 530.665 172.5 530.665 181.5V240H510.325V184.56C510.325 175.68 508.105 168.9 503.665 164.22C499.225 159.42 493.165 157.02 485.485 157.02C477.805 157.02 471.685 159.42 467.125 164.22C462.685 168.9 460.465 175.68 460.465 184.56V240H439.945V140.82H460.465V152.16C463.825 148.08 468.085 144.9 473.245 142.62C478.525 140.34 484.105 139.2 489.985 139.2ZM577.36 155.58C580.84 150.78 585.58 146.88 591.58 143.88C597.7 140.76 604.48 139.2 611.92 139.2C620.68 139.2 628.6 141.3 635.68 145.5C642.76 149.7 648.34 155.7 652.42 163.5C656.5 171.18 658.54 180 658.54 189.96C658.54 199.92 656.5 208.86 652.42 216.78C648.34 224.58 642.7 230.7 635.5 235.14C628.42 239.46 620.56 241.62 611.92 241.62C604.24 241.62 597.4 240.12 591.4 237.12C585.52 234.12 580.84 230.28 577.36 225.6V240H556.84V106.8H577.36V155.58ZM637.66 189.96C637.66 183.12 636.22 177.24 633.34 172.32C630.58 167.28 626.86 163.5 622.18 160.98C617.62 158.34 612.7 157.02 607.42 157.02C602.26 157.02 597.34 158.34 592.66 160.98C588.1 163.62 584.38 167.46 581.5 172.5C578.74 177.54 577.36 183.48 577.36 190.32C577.36 197.16 578.74 203.16 581.5 208.32C584.38 213.36 588.1 217.2 592.66 219.84C597.34 222.48 602.26 223.8 607.42 223.8C612.7 223.8 617.62 222.48 622.18 219.84C626.86 217.08 630.58 213.12 633.34 207.96C636.22 202.8 637.66 196.8 637.66 189.96ZM769.732 187.98C769.732 191.7 769.492 195.06 769.012 198.06H693.232C693.832 205.98 696.772 212.34 702.052 217.14C707.332 221.94 713.812 224.34 721.492 224.34C732.532 224.34 740.332 219.72 744.892 210.48H767.032C764.032 219.6 758.572 227.1 750.652 232.98C742.852 238.74 733.132 241.62 721.492 241.62C712.012 241.62 703.492 239.52 695.932 235.32C688.492 231 682.612 225 678.292 217.32C674.092 209.52 671.992 200.52 671.992 190.32C671.992 180.12 674.032 171.18 678.112 163.5C682.312 155.7 688.132 149.7 695.572 145.5C703.132 141.3 711.772 139.2 721.492 139.2C730.852 139.2 739.192 141.24 746.512 145.32C753.832 149.4 759.532 155.16 763.612 162.6C767.692 169.92 769.732 178.38 769.732 187.98ZM748.312 181.5C748.192 173.94 745.492 167.88 740.212 163.32C734.932 158.76 728.392 156.48 720.592 156.48C713.512 156.48 707.452 158.76 702.412 163.32C697.372 167.76 694.372 173.82 693.412 181.5H748.312ZM880.826 187.98C880.826 191.7 880.586 195.06 880.106 198.06H804.326C804.926 205.98 807.866 212.34 813.146 217.14C818.426 221.94 824.906 224.34 832.586 224.34C843.626 224.34 851.426 219.72 855.986 210.48H878.126C875.126 219.6 869.666 227.1 861.746 232.98C853.946 238.74 844.226 241.62 832.586 241.62C823.106 241.62 814.586 239.52 807.026 235.32C799.586 231 793.706 225 789.386 217.32C785.186 209.52 783.086 200.52 783.086 190.32C783.086 180.12 785.126 171.18 789.206 163.5C793.406 155.7 799.226 149.7 806.666 145.5C814.226 141.3 822.866 139.2 832.586 139.2C841.946 139.2 850.286 141.24 857.606 145.32C864.926 149.4 870.626 155.16 874.706 162.6C878.786 169.92 880.826 178.38 880.826 187.98ZM859.406 181.5C859.286 173.94 856.586 167.88 851.306 163.32C846.026 158.76 839.486 156.48 831.686 156.48C824.606 156.48 818.546 158.76 813.506 163.32C808.466 167.76 805.466 173.82 804.506 181.5H859.406Z" fill="white"/>
</svg>
